<?xml version="1.0" standalone="no"?><!DOCTYPE svg PUBLIC "-//W3C//DTD SVG 1.1//EN" "http://www.w3.org/Graphics/SVG/1.1/DTD/svg11.dtd"><svg t="1764723041676" class="icon" viewBox="0 0 1448 1024" version="1.1" xmlns="http://www.w3.org/2000/svg" p-id="1747" xmlns:xlink="http://www.w3.org/1999/xlink" width="282.8125" height="200"><path d="M840.217603 772.22663h369.389239v73.707566H840.217603zM840.217603 631.866017h331.684048c20.79867 0 37.705191 16.906521 37.705191 37.705191v36.002376H840.217603v-73.707567zM840.217603 922.682504v75.65364h331.319159c21.041929 0 38.191709-16.906521 38.191709-37.82682v-38.070079l-369.510868 0.243259z" fill="#000000" p-id="1748"></path><path d="M313.561231 922.682504v-47.678822c0-191.201805 156.780615-346.766124 349.563606-346.766124 50.476304 0 98.398385 10.703409 141.820168 29.920893h103.993349c11.919705 0 17.028151-15.082076 7.419408-22.136596-29.312745-21.528448-61.544601-39.408006-95.844162-53.030526l-8.027557-3.162371 6.811261-5.230075c61.787861-48.16534 97.303718-120.291721 97.303717-197.648176 0-138.657798-113.72372-251.53011-253.476184-251.530111s-253.354555 112.872313-253.354555 251.530111c0 77.356456 35.515857 149.482836 97.303717 197.648176l6.689631 5.230075-8.027557 3.162371c-78.207863 31.01556-144.982539 83.802827-193.02625 152.766837-49.260007 70.666825-75.288752 153.374985-75.288752 239.367146v85.384012c0 20.920299 17.14978 37.82682 38.07008 37.82682h491.018886v-75.65364H313.561231z m172.22758-645.853427c0-96.938829 79.545789-175.87647 177.214396-175.87647 97.668607 0 177.214396 78.937641 177.214396 175.87647 0 96.938829-79.545789 175.87647-177.214396 175.87647-97.790236-0.12163-177.214396-78.937641-177.214396-175.87647z" fill="#000000" p-id="1749"></path></svg>